# xmcd
#
# Track frame offsets: 
#        150
#        19114
#        33865
#        45916
#        70128
#        88729
#        107215
#        126196
#        143852
#        154572
#        167564
#
# Disc length: 2533 seconds
#
# Revision: 2
# Processed by: cddbd v1.5.2PL0 Copyright (c) Steve Scherf et al.
# Submitted via: ExactAudioCopy v0.95b4
#
DISCID=8509e30b
DTITLE=Garth Brooks - Fresh Horses(The Remastered Series)
DYEAR=2005
DGENRE=Country
TTITLE0=The Old Stuff
TTITLE1=Cowboys And Angels
TTITLE2=The Fever
TTITLE3=That Ol' Wind
TTITLE4=Rollin'
TTITLE5=The Change
TTITLE6=The Beaches Of Cheyenne
TTITLE7=To Make You Feel My Love(From The Movie Hope Floats)
TTITLE8=It's Midnight Cinderella
TTITLE9=She's Every Woman
TTITLE10=Ireland
EXTD=
EXTT0=
EXTT1=
EXTT2=
EXTT3=
EXTT4=
EXTT5=
EXTT6=
EXTT7=
EXTT8=
EXTT9=
EXTT10=
PLAYORDER=
